<svg width="24" height="24" viewBox="0 0 24 24" fill="none" xmlns="http://www.w3.org/2000/svg">
<path d="M11.1032 1.81723C11.47 1.07393 12.53 1.07393 12.8968 1.81723L15.2938 6.67472C15.4395 6.9699 15.7211 7.17449 16.0468 7.22181L21.4073 8.00049C22.2275 8.11964 22.5551 9.12768 21.9615 9.70622L18.0825 13.487C17.8468 13.7167 17.7392 14.0478 17.7949 14.3722L18.7108 19.7109C18.8509 20.5279 17.9934 21.1509 17.2598 20.7651L12.4654 18.2443C12.174 18.0911 11.826 18.0911 11.5346 18.2443L6.74021 20.7651C6.00656 21.1509 5.14908 20.5279 5.28923 19.7109L6.20514 14.3722C6.2608 14.0478 6.15324 13.7167 5.91752 13.487L2.0385 9.70622C1.44493 9.12768 1.77246 8.11964 2.59273 8.00049L7.9532 7.22181C8.27894 7.17449 8.56054 6.9699 8.7062 6.67472L11.1032 1.81723Z" fill="#DDDDDD"/>
<mask id="mask0_560_843" style="mask-type:alpha" maskUnits="userSpaceOnUse" x="0" y="0" width="12" height="24">
<rect width="12" height="24" transform="matrix(-1 0 0 1 12 0)" fill="#C4C4C4"/>
</mask>
<g mask="url(#mask0_560_843)">
<path d="M11.1032 1.81723C11.47 1.07393 12.53 1.07393 12.8968 1.81723L15.2938 6.67472C15.4395 6.9699 15.7211 7.17449 16.0468 7.22181L21.4073 8.00049C22.2275 8.11964 22.5551 9.12768 21.9615 9.70622L18.0825 13.487C17.8468 13.7167 17.7392 14.0478 17.7949 14.3722L18.7108 19.7109C18.8509 20.5279 17.9934 21.1509 17.2598 20.7651L12.4654 18.2443C12.174 18.0911 11.826 18.0911 11.5346 18.2443L6.74021 20.7651C6.00656 21.1509 5.14908 20.5279 5.28923 19.7109L6.20514 14.3722C6.2608 14.0478 6.15324 13.7167 5.91752 13.487L2.0385 9.70622C1.44493 9.12768 1.77246 8.11964 2.59273 8.00049L7.9532 7.22181C8.27894 7.17449 8.56054 6.9699 8.7062 6.67472L11.1032 1.81723Z" fill="#FFCB65"/>
</g>
</svg>
