<svg width="22" height="20" viewBox="0 0 22 20" fill="none" xmlns="http://www.w3.org/2000/svg">
<path d="M10.1032 0.817232C10.47 0.0739326 11.53 0.0739337 11.8968 0.817234L14.2938 5.67472C14.4395 5.9699 14.7211 6.17449 15.0468 6.22181L20.4073 7.00049C21.2275 7.11964 21.5551 8.12768 20.9615 8.70622L17.0825 12.487C16.8468 12.7167 16.7392 13.0478 16.7949 13.3722L17.7108 18.7109C17.8509 19.5279 16.9934 20.1509 16.2598 19.7651L11.4654 17.2443C11.174 17.0911 10.826 17.0911 10.5346 17.2443L5.74021 19.7651C5.00656 20.1509 4.14908 19.5279 4.28923 18.7109L5.20514 13.3722C5.2608 13.0478 5.15324 12.7167 4.91752 12.487L1.0385 8.70622C0.444927 8.12768 0.77246 7.11964 1.59273 7.00049L6.9532 6.22181C7.27894 6.17449 7.56054 5.9699 7.7062 5.67472L10.1032 0.817232Z" fill="#FFCB65"/>
</svg>
