<svg width="24" height="24" viewBox="0 0 24 24" fill="none" xmlns="http://www.w3.org/2000/svg">
<path d="M11.5329 3.22302C11.6967 2.79421 12.3033 2.79421 12.4671 3.22302L14.492 8.52488C14.6307 8.88805 14.9673 9.13792 15.355 9.16557L20.8071 9.55427C21.2498 9.58584 21.435 10.1357 21.1015 10.4286L16.8528 14.1612C16.5743 14.4058 16.454 14.7846 16.5402 15.1451L17.8858 20.7691C17.9914 21.2101 17.5025 21.5526 17.1241 21.3028L12.5509 18.2839C12.2168 18.0633 11.7832 18.0633 11.4491 18.2839L6.87589 21.3028C6.49747 21.5526 6.00865 21.2101 6.11415 20.7691L7.45975 15.1451C7.54602 14.7846 7.42573 14.4058 7.1472 14.1612L2.89848 10.4286C2.56502 10.1357 2.75018 9.58584 3.19292 9.55427L8.64496 9.16557C9.03273 9.13792 9.36933 8.88805 9.50803 8.52488L11.5329 3.22302Z" fill="#FA6637"/>
<mask id="mask0" mask-type="alpha" maskUnits="userSpaceOnUse" x="2" y="2" width="20" height="20">
<path d="M11.5329 3.22302C11.6967 2.79421 12.3033 2.79421 12.4671 3.22302L14.492 8.52488C14.6307 8.88805 14.9673 9.13792 15.355 9.16557L20.8071 9.55427C21.2498 9.58584 21.435 10.1357 21.1015 10.4286L16.8528 14.1612C16.5743 14.4058 16.454 14.7846 16.5402 15.1451L17.8858 20.7691C17.9914 21.2101 17.5025 21.5526 17.1241 21.3028L12.5509 18.2839C12.2168 18.0633 11.7832 18.0633 11.4491 18.2839L6.87589 21.3028C6.49747 21.5526 6.00865 21.2101 6.11415 20.7691L7.45975 15.1451C7.54602 14.7846 7.42573 14.4058 7.1472 14.1612L2.89848 10.4286C2.56502 10.1357 2.75018 9.58584 3.19292 9.55427L8.64496 9.16557C9.03273 9.13792 9.36933 8.88805 9.50803 8.52488L11.5329 3.22302Z" fill="#FA6637"/>
</mask>
<g mask="url(#mask0)">
<rect x="13" width="11" height="24" fill="#8A8A8A"/>
</g>
</svg>
