<svg width="20" height="20" viewBox="0 0 20 20" fill="none" xmlns="http://www.w3.org/2000/svg">
<path d="M9.53291 1.22302C9.69668 0.794211 10.3033 0.79421 10.4671 1.22302L12.492 6.52488C12.6307 6.88805 12.9673 7.13792 13.355 7.16557L18.8071 7.55427C19.2498 7.58584 19.435 8.13569 19.1015 8.42864L14.8528 12.1612C14.5743 12.4058 14.454 12.7846 14.5402 13.1451L15.8858 18.7691C15.9914 19.2101 15.5025 19.5526 15.1241 19.3028L10.5509 16.2839C10.2168 16.0633 9.78324 16.0633 9.44909 16.2839L4.87589 19.3028C4.49747 19.5526 4.00865 19.2101 4.11415 18.7691L5.45975 13.1451C5.54602 12.7846 5.42573 12.4058 5.1472 12.1612L0.898481 8.42864C0.565018 8.13569 0.750179 7.58584 1.19292 7.55427L6.64496 7.16557C7.03273 7.13792 7.36933 6.88805 7.50803 6.52488L9.53291 1.22302Z" fill="#FA6637"/>
</svg>
